<?xml version="1.0" standalone="no"?>
<!DOCTYPE svg PUBLIC "-//W3C//DTD SVG 20010904//EN"
 "http://www.w3.org/TR/2001/REC-SVG-20010904/DTD/svg10.dtd">
<svg version="1.0" xmlns="http://www.w3.org/2000/svg"
 width="1366.000000pt" height="768.000000pt" viewBox="0 0 1366.000000 768.000000"
 preserveAspectRatio="xMidYMid meet">
<metadata>
Created by potrace 1.15, written by Peter Selinger 2001-2017
</metadata>
<g transform="translate(0.000000,768.000000) scale(0.100000,-0.100000)"
fill="#000000" stroke="none">
<path d="M6760 4143 c1 -21 2 -43 1 -48 -1 -6 -62 -53 -136 -105 -134 -92
-135 -94 -135 -132 l0 -38 164 0 164 0 -4 113 c-3 62 -1 118 4 126 7 10 40 -9
150 -85 l141 -99 -96 -3 c-53 -1 -101 2 -106 7 -15 15 0 41 23 41 15 0 20 7
20 26 0 24 -2 25 -47 22 l-48 -3 -3 -72 -3 -73 161 0 160 0 0 38 c0 37 -2 38
-169 155 -93 64 -174 117 -180 117 -6 0 -11 11 -11 25 0 20 -5 25 -26 25 -23
0 -25 -3 -24 -37z m-3 -270 c-3 -2 -50 -2 -107 -1 l-102 3 104 72 103 73 3
-71 c2 -39 1 -73 -1 -76z"/>
<path d="M6813 3743 c-35 -7 -81 -56 -88 -95 -9 -45 14 -101 51 -125 37 -24
111 -24 148 0 25 17 27 21 13 34 -11 12 -19 12 -35 4 -59 -31 -122 2 -122 64
0 62 63 95 122 64 16 -8 24 -8 35 4 14 13 13 17 -8 30 -27 17 -83 27 -116 20z"/>
<path d="M6490 3625 l0 -115 30 0 c29 0 30 2 30 45 0 62 28 62 67 0 22 -35 34
-45 56 -45 15 0 27 2 27 5 0 3 -16 30 -36 60 l-36 54 36 51 c20 27 36 52 36
55 0 3 -11 5 -25 5 -17 0 -33 -12 -55 -45 -19 -27 -39 -45 -50 -45 -17 0 -20
7 -20 45 0 43 -1 45 -30 45 l-30 0 0 -115z"/>
<path d="M6960 3720 c0 -17 7 -20 40 -20 l40 0 0 -95 c0 -95 0 -95 25 -95 25
0 25 0 25 95 l0 95 40 0 c33 0 40 3 40 20 0 19 -7 20 -105 20 -98 0 -105 -1
-105 -20z"/>
</g>
</svg>
