<?xml version="1.0" standalone="no"?>
<!DOCTYPE svg PUBLIC "-//W3C//DTD SVG 20010904//EN"
 "http://www.w3.org/TR/2001/REC-SVG-20010904/DTD/svg10.dtd">
<svg version="1.0" xmlns="http://www.w3.org/2000/svg"
 width="16.000000pt" height="16.000000pt" viewBox="0 0 16.000000 16.000000"
 preserveAspectRatio="xMidYMid meet">

<g transform="translate(0.000000,16.000000) scale(0.100000,-0.100000)"
fill="#999" stroke="none">
<path d="M42 148 c-15 -15 -16 -54 -2 -63 6 -4 0 -15 -15 -27 -14 -10 -25 -28
-25 -39 0 -17 8 -19 80 -19 72 0 80 2 80 19 0 11 -11 28 -24 38 -19 15 -22 23
-14 37 16 29 -6 66 -40 66 -15 0 -33 -5 -40 -12z m61 -22 c6 -15 -11 -36 -29
-36 -14 0 -23 20 -16 38 6 16 39 15 45 -2z m23 -91 c17 -13 13 -14 -46 -14
-59 0 -63 1 -46 14 25 19 67 19 92 0z"/>
</g>
</svg>
