<?xml version="1.0" standalone="no"?>
<!DOCTYPE svg PUBLIC "-//W3C//DTD SVG 20010904//EN"
 "http://www.w3.org/TR/2001/REC-SVG-20010904/DTD/svg10.dtd">
<svg version="1.0" xmlns="http://www.w3.org/2000/svg"
 width="16.000000pt" height="16.000000pt" viewBox="0 0 16.000000 16.000000"
 preserveAspectRatio="xMidYMid meet">

<g transform="translate(0.000000,16.000000) scale(0.0900000,-0.0900000)"
fill="#999" stroke="none">
<path d="M7 173 c-14 -13 -6 -69 13 -101 27 -44 77 -73 120 -70 28 2 36 8 38
26 5 34 -17 55 -49 48 -34 -6 -61 20 -52 52 3 12 0 29 -7 37 -13 15 -51 20
-63 8z m48 -23 c4 -6 1 -17 -5 -25 -13 -16 3 -46 40 -72 17 -12 24 -12 36 -2
11 9 18 9 26 1 13 -13 2 -32 -20 -32 -47 0 -133 99 -110 127 13 16 25 17 33 3z"/>
</g>
</svg>
