<?xml version="1.0" standalone="no"?>
<!DOCTYPE svg PUBLIC "-//W3C//DTD SVG 20010904//EN"
 "http://www.w3.org/TR/2001/REC-SVG-20010904/DTD/svg10.dtd">
<svg version="1.0" xmlns="http://www.w3.org/2000/svg"
 width="420.000000pt" height="421.000000pt" viewBox="0 0 420.000000 421.000000"
 preserveAspectRatio="xMidYMid meet">

<g transform="translate(0.000000,421.000000) scale(0.100000,-0.100000)"
fill="#dd2c14" stroke="none">
<path d="M1690 3931 c0 -222 -3 -282 -14 -293 -7 -7 -387 -274 -844 -593
l-831 -580 -1 -242 0 -243 1009 0 1008 0 -5 744 -5 744 41 27 c25 16 46 24 54
19 20 -12 1702 -1186 1713 -1195 5 -5 -272 -9 -618 -9 l-627 0 0 130 0 130
135 0 135 0 -2 163 -3 162 -297 3 -298 2 0 -460 0 -460 970 0 970 0 0 243 0
242 -1017 710 c-559 391 -1029 721 -1045 733 l-28 24 -31 -26 c-17 -14 -35
-26 -40 -26 -5 0 -9 71 -9 165 l0 165 -160 0 -160 0 0 -279z m-3 -1618 c-2 -2
-301 -2 -665 -1 l-661 3 662 463 662 462 3 -461 c1 -254 1 -464 -1 -466z"/>
<path d="M2111 1530 c-209 -29 -413 -142 -526 -292 -97 -127 -142 -257 -152
-428 -18 -330 159 -617 456 -740 314 -129 688 -70 908 143 l52 51 -77 71 c-42
40 -92 84 -109 99 l-33 28 -52 -47 c-221 -194 -576 -152 -728 85 -98 152 -97
387 1 542 150 235 508 275 727 83 l52 -47 38 33 c20 18 69 62 109 99 l72 67
-52 50 c-99 95 -199 150 -341 183 -96 23 -256 32 -345 20z"/>
<path d="M20 770 l0 -740 165 0 165 0 2 297 3 298 120 2 120 3 193 -300 194
-300 194 0 195 0 -19 28 c-68 96 -475 729 -475 737 0 6 99 157 220 335 121
179 228 337 238 353 l17 27 -178 0 -179 0 -195 -300 -195 -300 -125 2 -125 3
-3 298 -2 297 -165 0 -165 0 0 -740z"/>
<path d="M2910 1370 l0 -140 235 0 235 0 0 -600 0 -600 170 0 170 0 0 600 0
600 240 0 240 0 0 140 0 140 -645 0 -645 0 0 -140z"/>
</g>
</svg>
